<?xml version="1.0" encoding="UTF-8"?>
<svg id="Layer_1" xmlns="http://www.w3.org/2000/svg" version="1.1" xmlns:xlink="http://www.w3.org/1999/xlink" viewBox="0 0 387.4 380.3">
  <!-- Generator: Adobe Illustrator 29.8.2, SVG Export Plug-In . SVG Version: 2.1.1 Build 3)  -->
  <defs>
    <filter id="drop-shadow-1" x="19" y="16.1" width="368.4" height="353.3" filterUnits="userSpaceOnUse">
      <feOffset dx="7" dy="7"/>
      <feGaussianBlur result="blur" stdDeviation="5"/>
      <feFlood flood-color="#231f20" flood-opacity=".8"/>
      <feComposite in2="blur" operator="in"/>
      <feComposite in="SourceGraphic"/>
    </filter>
    <filter id="drop-shadow-2" x="1.9" y="76.6" width="236.9" height="236.9" filterUnits="userSpaceOnUse">
      <feOffset dx="7" dy="7"/>
      <feGaussianBlur result="blur1" stdDeviation="5"/>
      <feFlood flood-color="#231f20" flood-opacity=".8"/>
      <feComposite in2="blur1" operator="in"/>
      <feComposite in="SourceGraphic"/>
    </filter>
    <filter id="drop-shadow-3" x="164.6" y="235.5" width="107.3" height="109.7" filterUnits="userSpaceOnUse">
      <feOffset dx="7" dy="7"/>
      <feGaussianBlur result="blur2" stdDeviation="5"/>
      <feFlood flood-color="#231f20" flood-opacity=".8"/>
      <feComposite in2="blur2" operator="in"/>
      <feComposite in="SourceGraphic"/>
    </filter>
  </defs>
  <rect x="21.1" y="21.1" width="338.1" height="338.1" rx="32.2" ry="32.2" transform="translate(-29.3 34.7) rotate(-9.7)" fill="#d1d3d4"/>
  <path d="M59.3,24.3h273.8c17.8,0,32.2,14.4,32.2,32.2v258.5c0,17.8-14.4,32.2-32.2,32.2H59.3c-17.8,0-32.2-14.4-32.2-32.2V56.5c0-17.8,14.4-32.2,32.2-32.2Z" fill="#fff" filter="url(#drop-shadow-1)"/>
  <rect x="53.4" y="49.9" width="285.6" height="219.4" rx="23.8" ry="23.8" fill="#bcbec0"/>
  <rect x="44.4" y="121.5" width="160.2" height="129.3" rx="25.1" ry="25.1" fill="#bcbec0"/>
  <rect x="64.5" y="129.3" width="128.1" height="107.4" rx="9.7" ry="9.7" fill="#fff"/>
  <path d="M201.5,137.4c.2-.7,1.1-3.2,3.1-3.8,2.6-.7,5.2,2.2,6.6,3.8,3,3.4,3.9,7.3,4.2,10,7.8-13.3,16.1-23,22.4-29.4,8.9-9.1,22.1-22.2,42.5-27.5,5.8-1.5,20-5.2,25.1,1.2,3.8,4.8.9,13.3-.7,18.1-3.8,11.2-8.9,11.2-11.9,21.2-2.6,9,.9,11.1-2.5,19.4-.9,2.2-3.9,9-11.2,13.8-8.2,5.3-16.7,4.7-19.4,4.4,3.1.7,10.7,3,16.9,10,1.8,2.1,5.7,6.5,6.9,13.1,2.3,12.9-7.5,23.5-11.2,27.5-3.8,4.1-12.3,13.2-22.5,11.9-5.2-.7-8.9-3.9-11.9-6.9-6.1-6.1-16.8-18.4-26.6-40.6" fill="#f7941d"/>
  <circle cx="113.4" cy="188" r="91.2" fill="none" filter="url(#drop-shadow-2)" stroke="#00aeef" stroke-miterlimit="10" stroke-width="24"/>
  <path d="M237.8,311.2c-17.7-18.5-35.4-37.1-53.1-55.6" fill="none" filter="url(#drop-shadow-3)" stroke="#00aeef" stroke-linecap="round" stroke-linejoin="round" stroke-width="24"/>
  <path d="M75.8,159.7h97.5" fill="#fff" stroke="#231f20" stroke-linecap="round" stroke-linejoin="round" stroke-width="10"/>
  <path d="M75.8,183.1h83.1" fill="#fff" stroke="#231f20" stroke-linecap="round" stroke-linejoin="round" stroke-width="10"/>
  <path d="M75.8,208.4h63.1" fill="#fff" stroke="#231f20" stroke-linecap="round" stroke-linejoin="round" stroke-width="10"/>
</svg>